<mxfile host="app.diagrams.net" agent="Mozilla/5.0 (Windows NT 10.0; Win64; x64) AppleWebKit/537.36 (KHTML, like Gecko) Chrome/127.0.0.0 Safari/537.36" version="24.7.5">
  <diagram name="第 1 页" id="zXMqM6brCatOP6lWQaTj">
    <mxGraphModel dx="2874" dy="1140" grid="0" gridSize="10" guides="1" tooltips="1" connect="1" arrows="1" fold="1" page="0" pageScale="1" pageWidth="827" pageHeight="1169" math="0" shadow="0">
      <root>
        <mxCell id="0" />
        <mxCell id="1" parent="0" />
        <mxCell id="Et15URfuXUe40IgZoOrX-2" value="" style="shape=table;startSize=0;container=1;collapsible=0;childLayout=tableLayout;fontSize=16;" vertex="1" parent="1">
          <mxGeometry x="-652" y="250" width="187.29" height="161" as="geometry" />
        </mxCell>
        <mxCell id="Et15URfuXUe40IgZoOrX-15" value="" style="shape=tableRow;horizontal=0;startSize=0;swimlaneHead=0;swimlaneBody=0;strokeColor=inherit;top=0;left=0;bottom=0;right=0;collapsible=0;dropTarget=0;fillColor=none;points=[[0,0.5],[1,0.5]];portConstraint=eastwest;fontSize=16;" vertex="1" parent="Et15URfuXUe40IgZoOrX-2">
          <mxGeometry width="187.29" height="40" as="geometry" />
        </mxCell>
        <mxCell id="Et15URfuXUe40IgZoOrX-16" value="" style="shape=partialRectangle;html=1;whiteSpace=wrap;connectable=0;strokeColor=inherit;overflow=hidden;fillColor=none;top=0;left=0;bottom=0;right=0;pointerEvents=1;fontSize=16;" vertex="1" parent="Et15URfuXUe40IgZoOrX-15">
          <mxGeometry width="47" height="40" as="geometry">
            <mxRectangle width="47" height="40" as="alternateBounds" />
          </mxGeometry>
        </mxCell>
        <mxCell id="Et15URfuXUe40IgZoOrX-17" value="" style="shape=partialRectangle;html=1;whiteSpace=wrap;connectable=0;strokeColor=inherit;overflow=hidden;fillColor=none;top=0;left=0;bottom=0;right=0;pointerEvents=1;fontSize=16;" vertex="1" parent="Et15URfuXUe40IgZoOrX-15">
          <mxGeometry x="47" width="46" height="40" as="geometry">
            <mxRectangle width="46" height="40" as="alternateBounds" />
          </mxGeometry>
        </mxCell>
        <mxCell id="Et15URfuXUe40IgZoOrX-18" value="" style="shape=partialRectangle;html=1;whiteSpace=wrap;connectable=0;strokeColor=inherit;overflow=hidden;fillColor=none;top=0;left=0;bottom=0;right=0;pointerEvents=1;fontSize=16;" vertex="1" parent="Et15URfuXUe40IgZoOrX-15">
          <mxGeometry x="93" width="47" height="40" as="geometry">
            <mxRectangle width="47" height="40" as="alternateBounds" />
          </mxGeometry>
        </mxCell>
        <mxCell id="Et15URfuXUe40IgZoOrX-42" style="shape=partialRectangle;html=1;whiteSpace=wrap;connectable=0;strokeColor=inherit;overflow=hidden;fillColor=none;top=0;left=0;bottom=0;right=0;pointerEvents=1;fontSize=16;" vertex="1" parent="Et15URfuXUe40IgZoOrX-15">
          <mxGeometry x="140" width="47" height="40" as="geometry">
            <mxRectangle width="47" height="40" as="alternateBounds" />
          </mxGeometry>
        </mxCell>
        <mxCell id="Et15URfuXUe40IgZoOrX-3" value="" style="shape=tableRow;horizontal=0;startSize=0;swimlaneHead=0;swimlaneBody=0;strokeColor=inherit;top=0;left=0;bottom=0;right=0;collapsible=0;dropTarget=0;fillColor=none;points=[[0,0.5],[1,0.5]];portConstraint=eastwest;fontSize=16;" vertex="1" parent="Et15URfuXUe40IgZoOrX-2">
          <mxGeometry y="40" width="187.29" height="41" as="geometry" />
        </mxCell>
        <mxCell id="Et15URfuXUe40IgZoOrX-4" value="" style="shape=partialRectangle;html=1;whiteSpace=wrap;connectable=0;strokeColor=inherit;overflow=hidden;fillColor=none;top=0;left=0;bottom=0;right=0;pointerEvents=1;fontSize=16;" vertex="1" parent="Et15URfuXUe40IgZoOrX-3">
          <mxGeometry width="47" height="41" as="geometry">
            <mxRectangle width="47" height="41" as="alternateBounds" />
          </mxGeometry>
        </mxCell>
        <mxCell id="Et15URfuXUe40IgZoOrX-5" value="" style="shape=partialRectangle;html=1;whiteSpace=wrap;connectable=0;strokeColor=inherit;overflow=hidden;fillColor=none;top=0;left=0;bottom=0;right=0;pointerEvents=1;fontSize=16;" vertex="1" parent="Et15URfuXUe40IgZoOrX-3">
          <mxGeometry x="47" width="46" height="41" as="geometry">
            <mxRectangle width="46" height="41" as="alternateBounds" />
          </mxGeometry>
        </mxCell>
        <mxCell id="Et15URfuXUe40IgZoOrX-6" value="" style="shape=partialRectangle;html=1;whiteSpace=wrap;connectable=0;strokeColor=inherit;overflow=hidden;fillColor=none;top=0;left=0;bottom=0;right=0;pointerEvents=1;fontSize=16;" vertex="1" parent="Et15URfuXUe40IgZoOrX-3">
          <mxGeometry x="93" width="47" height="41" as="geometry">
            <mxRectangle width="47" height="41" as="alternateBounds" />
          </mxGeometry>
        </mxCell>
        <mxCell id="Et15URfuXUe40IgZoOrX-43" style="shape=partialRectangle;html=1;whiteSpace=wrap;connectable=0;strokeColor=inherit;overflow=hidden;fillColor=none;top=0;left=0;bottom=0;right=0;pointerEvents=1;fontSize=16;" vertex="1" parent="Et15URfuXUe40IgZoOrX-3">
          <mxGeometry x="140" width="47" height="41" as="geometry">
            <mxRectangle width="47" height="41" as="alternateBounds" />
          </mxGeometry>
        </mxCell>
        <mxCell id="Et15URfuXUe40IgZoOrX-7" value="" style="shape=tableRow;horizontal=0;startSize=0;swimlaneHead=0;swimlaneBody=0;strokeColor=inherit;top=0;left=0;bottom=0;right=0;collapsible=0;dropTarget=0;fillColor=none;points=[[0,0.5],[1,0.5]];portConstraint=eastwest;fontSize=16;" vertex="1" parent="Et15URfuXUe40IgZoOrX-2">
          <mxGeometry y="81" width="187.29" height="40" as="geometry" />
        </mxCell>
        <mxCell id="Et15URfuXUe40IgZoOrX-8" value="" style="shape=partialRectangle;html=1;whiteSpace=wrap;connectable=0;strokeColor=inherit;overflow=hidden;fillColor=none;top=0;left=0;bottom=0;right=0;pointerEvents=1;fontSize=16;" vertex="1" parent="Et15URfuXUe40IgZoOrX-7">
          <mxGeometry width="47" height="40" as="geometry">
            <mxRectangle width="47" height="40" as="alternateBounds" />
          </mxGeometry>
        </mxCell>
        <mxCell id="Et15URfuXUe40IgZoOrX-9" value="" style="shape=partialRectangle;html=1;whiteSpace=wrap;connectable=0;strokeColor=inherit;overflow=hidden;fillColor=none;top=0;left=0;bottom=0;right=0;pointerEvents=1;fontSize=16;" vertex="1" parent="Et15URfuXUe40IgZoOrX-7">
          <mxGeometry x="47" width="46" height="40" as="geometry">
            <mxRectangle width="46" height="40" as="alternateBounds" />
          </mxGeometry>
        </mxCell>
        <mxCell id="Et15URfuXUe40IgZoOrX-10" value="" style="shape=partialRectangle;html=1;whiteSpace=wrap;connectable=0;strokeColor=inherit;overflow=hidden;fillColor=none;top=0;left=0;bottom=0;right=0;pointerEvents=1;fontSize=16;" vertex="1" parent="Et15URfuXUe40IgZoOrX-7">
          <mxGeometry x="93" width="47" height="40" as="geometry">
            <mxRectangle width="47" height="40" as="alternateBounds" />
          </mxGeometry>
        </mxCell>
        <mxCell id="Et15URfuXUe40IgZoOrX-44" style="shape=partialRectangle;html=1;whiteSpace=wrap;connectable=0;strokeColor=inherit;overflow=hidden;fillColor=none;top=0;left=0;bottom=0;right=0;pointerEvents=1;fontSize=16;" vertex="1" parent="Et15URfuXUe40IgZoOrX-7">
          <mxGeometry x="140" width="47" height="40" as="geometry">
            <mxRectangle width="47" height="40" as="alternateBounds" />
          </mxGeometry>
        </mxCell>
        <mxCell id="Et15URfuXUe40IgZoOrX-11" value="" style="shape=tableRow;horizontal=0;startSize=0;swimlaneHead=0;swimlaneBody=0;strokeColor=inherit;top=0;left=0;bottom=0;right=0;collapsible=0;dropTarget=0;fillColor=none;points=[[0,0.5],[1,0.5]];portConstraint=eastwest;fontSize=16;" vertex="1" parent="Et15URfuXUe40IgZoOrX-2">
          <mxGeometry y="121" width="187.29" height="40" as="geometry" />
        </mxCell>
        <mxCell id="Et15URfuXUe40IgZoOrX-12" value="" style="shape=partialRectangle;html=1;whiteSpace=wrap;connectable=0;strokeColor=inherit;overflow=hidden;fillColor=none;top=0;left=0;bottom=0;right=0;pointerEvents=1;fontSize=16;" vertex="1" parent="Et15URfuXUe40IgZoOrX-11">
          <mxGeometry width="47" height="40" as="geometry">
            <mxRectangle width="47" height="40" as="alternateBounds" />
          </mxGeometry>
        </mxCell>
        <mxCell id="Et15URfuXUe40IgZoOrX-13" value="" style="shape=partialRectangle;html=1;whiteSpace=wrap;connectable=0;strokeColor=inherit;overflow=hidden;fillColor=none;top=0;left=0;bottom=0;right=0;pointerEvents=1;fontSize=16;" vertex="1" parent="Et15URfuXUe40IgZoOrX-11">
          <mxGeometry x="47" width="46" height="40" as="geometry">
            <mxRectangle width="46" height="40" as="alternateBounds" />
          </mxGeometry>
        </mxCell>
        <mxCell id="Et15URfuXUe40IgZoOrX-14" value="" style="shape=partialRectangle;html=1;whiteSpace=wrap;connectable=0;strokeColor=inherit;overflow=hidden;fillColor=none;top=0;left=0;bottom=0;right=0;pointerEvents=1;fontSize=16;" vertex="1" parent="Et15URfuXUe40IgZoOrX-11">
          <mxGeometry x="93" width="47" height="40" as="geometry">
            <mxRectangle width="47" height="40" as="alternateBounds" />
          </mxGeometry>
        </mxCell>
        <mxCell id="Et15URfuXUe40IgZoOrX-45" style="shape=partialRectangle;html=1;whiteSpace=wrap;connectable=0;strokeColor=inherit;overflow=hidden;fillColor=none;top=0;left=0;bottom=0;right=0;pointerEvents=1;fontSize=16;" vertex="1" parent="Et15URfuXUe40IgZoOrX-11">
          <mxGeometry x="140" width="47" height="40" as="geometry">
            <mxRectangle width="47" height="40" as="alternateBounds" />
          </mxGeometry>
        </mxCell>
        <mxCell id="Et15URfuXUe40IgZoOrX-46" value="" style="shape=table;startSize=0;container=1;collapsible=0;childLayout=tableLayout;fontSize=16;" vertex="1" parent="1">
          <mxGeometry x="-642" y="260" width="187.29" height="161" as="geometry" />
        </mxCell>
        <mxCell id="Et15URfuXUe40IgZoOrX-47" value="" style="shape=tableRow;horizontal=0;startSize=0;swimlaneHead=0;swimlaneBody=0;strokeColor=inherit;top=0;left=0;bottom=0;right=0;collapsible=0;dropTarget=0;fillColor=none;points=[[0,0.5],[1,0.5]];portConstraint=eastwest;fontSize=16;" vertex="1" parent="Et15URfuXUe40IgZoOrX-46">
          <mxGeometry width="187.29" height="40" as="geometry" />
        </mxCell>
        <mxCell id="Et15URfuXUe40IgZoOrX-48" value="" style="shape=partialRectangle;html=1;whiteSpace=wrap;connectable=0;strokeColor=inherit;overflow=hidden;fillColor=none;top=0;left=0;bottom=0;right=0;pointerEvents=1;fontSize=16;" vertex="1" parent="Et15URfuXUe40IgZoOrX-47">
          <mxGeometry width="47" height="40" as="geometry">
            <mxRectangle width="47" height="40" as="alternateBounds" />
          </mxGeometry>
        </mxCell>
        <mxCell id="Et15URfuXUe40IgZoOrX-49" value="" style="shape=partialRectangle;html=1;whiteSpace=wrap;connectable=0;strokeColor=inherit;overflow=hidden;fillColor=none;top=0;left=0;bottom=0;right=0;pointerEvents=1;fontSize=16;" vertex="1" parent="Et15URfuXUe40IgZoOrX-47">
          <mxGeometry x="47" width="46" height="40" as="geometry">
            <mxRectangle width="46" height="40" as="alternateBounds" />
          </mxGeometry>
        </mxCell>
        <mxCell id="Et15URfuXUe40IgZoOrX-50" value="" style="shape=partialRectangle;html=1;whiteSpace=wrap;connectable=0;strokeColor=inherit;overflow=hidden;fillColor=none;top=0;left=0;bottom=0;right=0;pointerEvents=1;fontSize=16;" vertex="1" parent="Et15URfuXUe40IgZoOrX-47">
          <mxGeometry x="93" width="47" height="40" as="geometry">
            <mxRectangle width="47" height="40" as="alternateBounds" />
          </mxGeometry>
        </mxCell>
        <mxCell id="Et15URfuXUe40IgZoOrX-51" style="shape=partialRectangle;html=1;whiteSpace=wrap;connectable=0;strokeColor=inherit;overflow=hidden;fillColor=none;top=0;left=0;bottom=0;right=0;pointerEvents=1;fontSize=16;" vertex="1" parent="Et15URfuXUe40IgZoOrX-47">
          <mxGeometry x="140" width="47" height="40" as="geometry">
            <mxRectangle width="47" height="40" as="alternateBounds" />
          </mxGeometry>
        </mxCell>
        <mxCell id="Et15URfuXUe40IgZoOrX-52" value="" style="shape=tableRow;horizontal=0;startSize=0;swimlaneHead=0;swimlaneBody=0;strokeColor=inherit;top=0;left=0;bottom=0;right=0;collapsible=0;dropTarget=0;fillColor=none;points=[[0,0.5],[1,0.5]];portConstraint=eastwest;fontSize=16;" vertex="1" parent="Et15URfuXUe40IgZoOrX-46">
          <mxGeometry y="40" width="187.29" height="41" as="geometry" />
        </mxCell>
        <mxCell id="Et15URfuXUe40IgZoOrX-53" value="" style="shape=partialRectangle;html=1;whiteSpace=wrap;connectable=0;strokeColor=inherit;overflow=hidden;fillColor=none;top=0;left=0;bottom=0;right=0;pointerEvents=1;fontSize=16;" vertex="1" parent="Et15URfuXUe40IgZoOrX-52">
          <mxGeometry width="47" height="41" as="geometry">
            <mxRectangle width="47" height="41" as="alternateBounds" />
          </mxGeometry>
        </mxCell>
        <mxCell id="Et15URfuXUe40IgZoOrX-54" value="" style="shape=partialRectangle;html=1;whiteSpace=wrap;connectable=0;strokeColor=inherit;overflow=hidden;fillColor=none;top=0;left=0;bottom=0;right=0;pointerEvents=1;fontSize=16;" vertex="1" parent="Et15URfuXUe40IgZoOrX-52">
          <mxGeometry x="47" width="46" height="41" as="geometry">
            <mxRectangle width="46" height="41" as="alternateBounds" />
          </mxGeometry>
        </mxCell>
        <mxCell id="Et15URfuXUe40IgZoOrX-55" value="" style="shape=partialRectangle;html=1;whiteSpace=wrap;connectable=0;strokeColor=inherit;overflow=hidden;fillColor=none;top=0;left=0;bottom=0;right=0;pointerEvents=1;fontSize=16;" vertex="1" parent="Et15URfuXUe40IgZoOrX-52">
          <mxGeometry x="93" width="47" height="41" as="geometry">
            <mxRectangle width="47" height="41" as="alternateBounds" />
          </mxGeometry>
        </mxCell>
        <mxCell id="Et15URfuXUe40IgZoOrX-56" style="shape=partialRectangle;html=1;whiteSpace=wrap;connectable=0;strokeColor=inherit;overflow=hidden;fillColor=none;top=0;left=0;bottom=0;right=0;pointerEvents=1;fontSize=16;" vertex="1" parent="Et15URfuXUe40IgZoOrX-52">
          <mxGeometry x="140" width="47" height="41" as="geometry">
            <mxRectangle width="47" height="41" as="alternateBounds" />
          </mxGeometry>
        </mxCell>
        <mxCell id="Et15URfuXUe40IgZoOrX-57" value="" style="shape=tableRow;horizontal=0;startSize=0;swimlaneHead=0;swimlaneBody=0;strokeColor=inherit;top=0;left=0;bottom=0;right=0;collapsible=0;dropTarget=0;fillColor=none;points=[[0,0.5],[1,0.5]];portConstraint=eastwest;fontSize=16;" vertex="1" parent="Et15URfuXUe40IgZoOrX-46">
          <mxGeometry y="81" width="187.29" height="40" as="geometry" />
        </mxCell>
        <mxCell id="Et15URfuXUe40IgZoOrX-58" value="" style="shape=partialRectangle;html=1;whiteSpace=wrap;connectable=0;strokeColor=inherit;overflow=hidden;fillColor=none;top=0;left=0;bottom=0;right=0;pointerEvents=1;fontSize=16;" vertex="1" parent="Et15URfuXUe40IgZoOrX-57">
          <mxGeometry width="47" height="40" as="geometry">
            <mxRectangle width="47" height="40" as="alternateBounds" />
          </mxGeometry>
        </mxCell>
        <mxCell id="Et15URfuXUe40IgZoOrX-59" value="" style="shape=partialRectangle;html=1;whiteSpace=wrap;connectable=0;strokeColor=inherit;overflow=hidden;fillColor=none;top=0;left=0;bottom=0;right=0;pointerEvents=1;fontSize=16;" vertex="1" parent="Et15URfuXUe40IgZoOrX-57">
          <mxGeometry x="47" width="46" height="40" as="geometry">
            <mxRectangle width="46" height="40" as="alternateBounds" />
          </mxGeometry>
        </mxCell>
        <mxCell id="Et15URfuXUe40IgZoOrX-60" value="" style="shape=partialRectangle;html=1;whiteSpace=wrap;connectable=0;strokeColor=inherit;overflow=hidden;fillColor=none;top=0;left=0;bottom=0;right=0;pointerEvents=1;fontSize=16;" vertex="1" parent="Et15URfuXUe40IgZoOrX-57">
          <mxGeometry x="93" width="47" height="40" as="geometry">
            <mxRectangle width="47" height="40" as="alternateBounds" />
          </mxGeometry>
        </mxCell>
        <mxCell id="Et15URfuXUe40IgZoOrX-61" style="shape=partialRectangle;html=1;whiteSpace=wrap;connectable=0;strokeColor=inherit;overflow=hidden;fillColor=none;top=0;left=0;bottom=0;right=0;pointerEvents=1;fontSize=16;" vertex="1" parent="Et15URfuXUe40IgZoOrX-57">
          <mxGeometry x="140" width="47" height="40" as="geometry">
            <mxRectangle width="47" height="40" as="alternateBounds" />
          </mxGeometry>
        </mxCell>
        <mxCell id="Et15URfuXUe40IgZoOrX-62" value="" style="shape=tableRow;horizontal=0;startSize=0;swimlaneHead=0;swimlaneBody=0;strokeColor=inherit;top=0;left=0;bottom=0;right=0;collapsible=0;dropTarget=0;fillColor=none;points=[[0,0.5],[1,0.5]];portConstraint=eastwest;fontSize=16;" vertex="1" parent="Et15URfuXUe40IgZoOrX-46">
          <mxGeometry y="121" width="187.29" height="40" as="geometry" />
        </mxCell>
        <mxCell id="Et15URfuXUe40IgZoOrX-63" value="" style="shape=partialRectangle;html=1;whiteSpace=wrap;connectable=0;strokeColor=inherit;overflow=hidden;fillColor=none;top=0;left=0;bottom=0;right=0;pointerEvents=1;fontSize=16;" vertex="1" parent="Et15URfuXUe40IgZoOrX-62">
          <mxGeometry width="47" height="40" as="geometry">
            <mxRectangle width="47" height="40" as="alternateBounds" />
          </mxGeometry>
        </mxCell>
        <mxCell id="Et15URfuXUe40IgZoOrX-64" value="" style="shape=partialRectangle;html=1;whiteSpace=wrap;connectable=0;strokeColor=inherit;overflow=hidden;fillColor=none;top=0;left=0;bottom=0;right=0;pointerEvents=1;fontSize=16;" vertex="1" parent="Et15URfuXUe40IgZoOrX-62">
          <mxGeometry x="47" width="46" height="40" as="geometry">
            <mxRectangle width="46" height="40" as="alternateBounds" />
          </mxGeometry>
        </mxCell>
        <mxCell id="Et15URfuXUe40IgZoOrX-65" value="" style="shape=partialRectangle;html=1;whiteSpace=wrap;connectable=0;strokeColor=inherit;overflow=hidden;fillColor=none;top=0;left=0;bottom=0;right=0;pointerEvents=1;fontSize=16;" vertex="1" parent="Et15URfuXUe40IgZoOrX-62">
          <mxGeometry x="93" width="47" height="40" as="geometry">
            <mxRectangle width="47" height="40" as="alternateBounds" />
          </mxGeometry>
        </mxCell>
        <mxCell id="Et15URfuXUe40IgZoOrX-66" style="shape=partialRectangle;html=1;whiteSpace=wrap;connectable=0;strokeColor=inherit;overflow=hidden;fillColor=none;top=0;left=0;bottom=0;right=0;pointerEvents=1;fontSize=16;" vertex="1" parent="Et15URfuXUe40IgZoOrX-62">
          <mxGeometry x="140" width="47" height="40" as="geometry">
            <mxRectangle width="47" height="40" as="alternateBounds" />
          </mxGeometry>
        </mxCell>
        <mxCell id="Et15URfuXUe40IgZoOrX-67" value="" style="shape=table;startSize=0;container=1;collapsible=0;childLayout=tableLayout;fontSize=16;" vertex="1" parent="1">
          <mxGeometry x="-632" y="270" width="187.29" height="161" as="geometry" />
        </mxCell>
        <mxCell id="Et15URfuXUe40IgZoOrX-68" value="" style="shape=tableRow;horizontal=0;startSize=0;swimlaneHead=0;swimlaneBody=0;strokeColor=inherit;top=0;left=0;bottom=0;right=0;collapsible=0;dropTarget=0;fillColor=none;points=[[0,0.5],[1,0.5]];portConstraint=eastwest;fontSize=16;" vertex="1" parent="Et15URfuXUe40IgZoOrX-67">
          <mxGeometry width="187.29" height="40" as="geometry" />
        </mxCell>
        <mxCell id="Et15URfuXUe40IgZoOrX-69" value="" style="shape=partialRectangle;html=1;whiteSpace=wrap;connectable=0;strokeColor=inherit;overflow=hidden;fillColor=none;top=0;left=0;bottom=0;right=0;pointerEvents=1;fontSize=16;" vertex="1" parent="Et15URfuXUe40IgZoOrX-68">
          <mxGeometry width="47" height="40" as="geometry">
            <mxRectangle width="47" height="40" as="alternateBounds" />
          </mxGeometry>
        </mxCell>
        <mxCell id="Et15URfuXUe40IgZoOrX-70" value="" style="shape=partialRectangle;html=1;whiteSpace=wrap;connectable=0;strokeColor=inherit;overflow=hidden;fillColor=none;top=0;left=0;bottom=0;right=0;pointerEvents=1;fontSize=16;" vertex="1" parent="Et15URfuXUe40IgZoOrX-68">
          <mxGeometry x="47" width="46" height="40" as="geometry">
            <mxRectangle width="46" height="40" as="alternateBounds" />
          </mxGeometry>
        </mxCell>
        <mxCell id="Et15URfuXUe40IgZoOrX-71" value="" style="shape=partialRectangle;html=1;whiteSpace=wrap;connectable=0;strokeColor=inherit;overflow=hidden;fillColor=none;top=0;left=0;bottom=0;right=0;pointerEvents=1;fontSize=16;" vertex="1" parent="Et15URfuXUe40IgZoOrX-68">
          <mxGeometry x="93" width="47" height="40" as="geometry">
            <mxRectangle width="47" height="40" as="alternateBounds" />
          </mxGeometry>
        </mxCell>
        <mxCell id="Et15URfuXUe40IgZoOrX-72" style="shape=partialRectangle;html=1;whiteSpace=wrap;connectable=0;strokeColor=inherit;overflow=hidden;fillColor=none;top=0;left=0;bottom=0;right=0;pointerEvents=1;fontSize=16;" vertex="1" parent="Et15URfuXUe40IgZoOrX-68">
          <mxGeometry x="140" width="47" height="40" as="geometry">
            <mxRectangle width="47" height="40" as="alternateBounds" />
          </mxGeometry>
        </mxCell>
        <mxCell id="Et15URfuXUe40IgZoOrX-73" value="" style="shape=tableRow;horizontal=0;startSize=0;swimlaneHead=0;swimlaneBody=0;strokeColor=inherit;top=0;left=0;bottom=0;right=0;collapsible=0;dropTarget=0;fillColor=none;points=[[0,0.5],[1,0.5]];portConstraint=eastwest;fontSize=16;" vertex="1" parent="Et15URfuXUe40IgZoOrX-67">
          <mxGeometry y="40" width="187.29" height="41" as="geometry" />
        </mxCell>
        <mxCell id="Et15URfuXUe40IgZoOrX-74" value="" style="shape=partialRectangle;html=1;whiteSpace=wrap;connectable=0;strokeColor=inherit;overflow=hidden;fillColor=none;top=0;left=0;bottom=0;right=0;pointerEvents=1;fontSize=16;" vertex="1" parent="Et15URfuXUe40IgZoOrX-73">
          <mxGeometry width="47" height="41" as="geometry">
            <mxRectangle width="47" height="41" as="alternateBounds" />
          </mxGeometry>
        </mxCell>
        <mxCell id="Et15URfuXUe40IgZoOrX-75" value="" style="shape=partialRectangle;html=1;whiteSpace=wrap;connectable=0;strokeColor=inherit;overflow=hidden;fillColor=none;top=0;left=0;bottom=0;right=0;pointerEvents=1;fontSize=16;" vertex="1" parent="Et15URfuXUe40IgZoOrX-73">
          <mxGeometry x="47" width="46" height="41" as="geometry">
            <mxRectangle width="46" height="41" as="alternateBounds" />
          </mxGeometry>
        </mxCell>
        <mxCell id="Et15URfuXUe40IgZoOrX-76" value="" style="shape=partialRectangle;html=1;whiteSpace=wrap;connectable=0;strokeColor=inherit;overflow=hidden;fillColor=none;top=0;left=0;bottom=0;right=0;pointerEvents=1;fontSize=16;" vertex="1" parent="Et15URfuXUe40IgZoOrX-73">
          <mxGeometry x="93" width="47" height="41" as="geometry">
            <mxRectangle width="47" height="41" as="alternateBounds" />
          </mxGeometry>
        </mxCell>
        <mxCell id="Et15URfuXUe40IgZoOrX-77" style="shape=partialRectangle;html=1;whiteSpace=wrap;connectable=0;strokeColor=inherit;overflow=hidden;fillColor=none;top=0;left=0;bottom=0;right=0;pointerEvents=1;fontSize=16;" vertex="1" parent="Et15URfuXUe40IgZoOrX-73">
          <mxGeometry x="140" width="47" height="41" as="geometry">
            <mxRectangle width="47" height="41" as="alternateBounds" />
          </mxGeometry>
        </mxCell>
        <mxCell id="Et15URfuXUe40IgZoOrX-78" value="" style="shape=tableRow;horizontal=0;startSize=0;swimlaneHead=0;swimlaneBody=0;strokeColor=inherit;top=0;left=0;bottom=0;right=0;collapsible=0;dropTarget=0;fillColor=none;points=[[0,0.5],[1,0.5]];portConstraint=eastwest;fontSize=16;" vertex="1" parent="Et15URfuXUe40IgZoOrX-67">
          <mxGeometry y="81" width="187.29" height="40" as="geometry" />
        </mxCell>
        <mxCell id="Et15URfuXUe40IgZoOrX-79" value="" style="shape=partialRectangle;html=1;whiteSpace=wrap;connectable=0;strokeColor=inherit;overflow=hidden;fillColor=none;top=0;left=0;bottom=0;right=0;pointerEvents=1;fontSize=16;" vertex="1" parent="Et15URfuXUe40IgZoOrX-78">
          <mxGeometry width="47" height="40" as="geometry">
            <mxRectangle width="47" height="40" as="alternateBounds" />
          </mxGeometry>
        </mxCell>
        <mxCell id="Et15URfuXUe40IgZoOrX-80" value="" style="shape=partialRectangle;html=1;whiteSpace=wrap;connectable=0;strokeColor=inherit;overflow=hidden;fillColor=none;top=0;left=0;bottom=0;right=0;pointerEvents=1;fontSize=16;" vertex="1" parent="Et15URfuXUe40IgZoOrX-78">
          <mxGeometry x="47" width="46" height="40" as="geometry">
            <mxRectangle width="46" height="40" as="alternateBounds" />
          </mxGeometry>
        </mxCell>
        <mxCell id="Et15URfuXUe40IgZoOrX-81" value="" style="shape=partialRectangle;html=1;whiteSpace=wrap;connectable=0;strokeColor=inherit;overflow=hidden;fillColor=none;top=0;left=0;bottom=0;right=0;pointerEvents=1;fontSize=16;" vertex="1" parent="Et15URfuXUe40IgZoOrX-78">
          <mxGeometry x="93" width="47" height="40" as="geometry">
            <mxRectangle width="47" height="40" as="alternateBounds" />
          </mxGeometry>
        </mxCell>
        <mxCell id="Et15URfuXUe40IgZoOrX-82" style="shape=partialRectangle;html=1;whiteSpace=wrap;connectable=0;strokeColor=inherit;overflow=hidden;fillColor=none;top=0;left=0;bottom=0;right=0;pointerEvents=1;fontSize=16;" vertex="1" parent="Et15URfuXUe40IgZoOrX-78">
          <mxGeometry x="140" width="47" height="40" as="geometry">
            <mxRectangle width="47" height="40" as="alternateBounds" />
          </mxGeometry>
        </mxCell>
        <mxCell id="Et15URfuXUe40IgZoOrX-83" value="" style="shape=tableRow;horizontal=0;startSize=0;swimlaneHead=0;swimlaneBody=0;strokeColor=inherit;top=0;left=0;bottom=0;right=0;collapsible=0;dropTarget=0;fillColor=none;points=[[0,0.5],[1,0.5]];portConstraint=eastwest;fontSize=16;" vertex="1" parent="Et15URfuXUe40IgZoOrX-67">
          <mxGeometry y="121" width="187.29" height="40" as="geometry" />
        </mxCell>
        <mxCell id="Et15URfuXUe40IgZoOrX-84" value="" style="shape=partialRectangle;html=1;whiteSpace=wrap;connectable=0;strokeColor=inherit;overflow=hidden;fillColor=none;top=0;left=0;bottom=0;right=0;pointerEvents=1;fontSize=16;" vertex="1" parent="Et15URfuXUe40IgZoOrX-83">
          <mxGeometry width="47" height="40" as="geometry">
            <mxRectangle width="47" height="40" as="alternateBounds" />
          </mxGeometry>
        </mxCell>
        <mxCell id="Et15URfuXUe40IgZoOrX-85" value="" style="shape=partialRectangle;html=1;whiteSpace=wrap;connectable=0;strokeColor=inherit;overflow=hidden;fillColor=none;top=0;left=0;bottom=0;right=0;pointerEvents=1;fontSize=16;" vertex="1" parent="Et15URfuXUe40IgZoOrX-83">
          <mxGeometry x="47" width="46" height="40" as="geometry">
            <mxRectangle width="46" height="40" as="alternateBounds" />
          </mxGeometry>
        </mxCell>
        <mxCell id="Et15URfuXUe40IgZoOrX-86" value="" style="shape=partialRectangle;html=1;whiteSpace=wrap;connectable=0;strokeColor=inherit;overflow=hidden;fillColor=none;top=0;left=0;bottom=0;right=0;pointerEvents=1;fontSize=16;" vertex="1" parent="Et15URfuXUe40IgZoOrX-83">
          <mxGeometry x="93" width="47" height="40" as="geometry">
            <mxRectangle width="47" height="40" as="alternateBounds" />
          </mxGeometry>
        </mxCell>
        <mxCell id="Et15URfuXUe40IgZoOrX-87" style="shape=partialRectangle;html=1;whiteSpace=wrap;connectable=0;strokeColor=inherit;overflow=hidden;fillColor=none;top=0;left=0;bottom=0;right=0;pointerEvents=1;fontSize=16;" vertex="1" parent="Et15URfuXUe40IgZoOrX-83">
          <mxGeometry x="140" width="47" height="40" as="geometry">
            <mxRectangle width="47" height="40" as="alternateBounds" />
          </mxGeometry>
        </mxCell>
        <mxCell id="Et15URfuXUe40IgZoOrX-151" value="" style="shape=table;startSize=0;container=1;collapsible=0;childLayout=tableLayout;fontSize=16;" vertex="1" parent="1">
          <mxGeometry x="-369" y="250" width="187.29" height="161" as="geometry" />
        </mxCell>
        <mxCell id="Et15URfuXUe40IgZoOrX-152" value="" style="shape=tableRow;horizontal=0;startSize=0;swimlaneHead=0;swimlaneBody=0;strokeColor=inherit;top=0;left=0;bottom=0;right=0;collapsible=0;dropTarget=0;fillColor=none;points=[[0,0.5],[1,0.5]];portConstraint=eastwest;fontSize=16;" vertex="1" parent="Et15URfuXUe40IgZoOrX-151">
          <mxGeometry width="187.29" height="40" as="geometry" />
        </mxCell>
        <mxCell id="Et15URfuXUe40IgZoOrX-153" value="" style="shape=partialRectangle;html=1;whiteSpace=wrap;connectable=0;strokeColor=inherit;overflow=hidden;fillColor=none;top=0;left=0;bottom=0;right=0;pointerEvents=1;fontSize=16;" vertex="1" parent="Et15URfuXUe40IgZoOrX-152">
          <mxGeometry width="47" height="40" as="geometry">
            <mxRectangle width="47" height="40" as="alternateBounds" />
          </mxGeometry>
        </mxCell>
        <mxCell id="Et15URfuXUe40IgZoOrX-154" value="" style="shape=partialRectangle;html=1;whiteSpace=wrap;connectable=0;strokeColor=inherit;overflow=hidden;fillColor=none;top=0;left=0;bottom=0;right=0;pointerEvents=1;fontSize=16;" vertex="1" parent="Et15URfuXUe40IgZoOrX-152">
          <mxGeometry x="47" width="46" height="40" as="geometry">
            <mxRectangle width="46" height="40" as="alternateBounds" />
          </mxGeometry>
        </mxCell>
        <mxCell id="Et15URfuXUe40IgZoOrX-155" value="" style="shape=partialRectangle;html=1;whiteSpace=wrap;connectable=0;strokeColor=inherit;overflow=hidden;fillColor=none;top=0;left=0;bottom=0;right=0;pointerEvents=1;fontSize=16;" vertex="1" parent="Et15URfuXUe40IgZoOrX-152">
          <mxGeometry x="93" width="47" height="40" as="geometry">
            <mxRectangle width="47" height="40" as="alternateBounds" />
          </mxGeometry>
        </mxCell>
        <mxCell id="Et15URfuXUe40IgZoOrX-156" style="shape=partialRectangle;html=1;whiteSpace=wrap;connectable=0;strokeColor=inherit;overflow=hidden;fillColor=none;top=0;left=0;bottom=0;right=0;pointerEvents=1;fontSize=16;" vertex="1" parent="Et15URfuXUe40IgZoOrX-152">
          <mxGeometry x="140" width="47" height="40" as="geometry">
            <mxRectangle width="47" height="40" as="alternateBounds" />
          </mxGeometry>
        </mxCell>
        <mxCell id="Et15URfuXUe40IgZoOrX-157" value="" style="shape=tableRow;horizontal=0;startSize=0;swimlaneHead=0;swimlaneBody=0;strokeColor=inherit;top=0;left=0;bottom=0;right=0;collapsible=0;dropTarget=0;fillColor=none;points=[[0,0.5],[1,0.5]];portConstraint=eastwest;fontSize=16;" vertex="1" parent="Et15URfuXUe40IgZoOrX-151">
          <mxGeometry y="40" width="187.29" height="41" as="geometry" />
        </mxCell>
        <mxCell id="Et15URfuXUe40IgZoOrX-158" value="" style="shape=partialRectangle;html=1;whiteSpace=wrap;connectable=0;strokeColor=inherit;overflow=hidden;fillColor=none;top=0;left=0;bottom=0;right=0;pointerEvents=1;fontSize=16;" vertex="1" parent="Et15URfuXUe40IgZoOrX-157">
          <mxGeometry width="47" height="41" as="geometry">
            <mxRectangle width="47" height="41" as="alternateBounds" />
          </mxGeometry>
        </mxCell>
        <mxCell id="Et15URfuXUe40IgZoOrX-159" value="" style="shape=partialRectangle;html=1;whiteSpace=wrap;connectable=0;strokeColor=inherit;overflow=hidden;fillColor=none;top=0;left=0;bottom=0;right=0;pointerEvents=1;fontSize=16;" vertex="1" parent="Et15URfuXUe40IgZoOrX-157">
          <mxGeometry x="47" width="46" height="41" as="geometry">
            <mxRectangle width="46" height="41" as="alternateBounds" />
          </mxGeometry>
        </mxCell>
        <mxCell id="Et15URfuXUe40IgZoOrX-160" value="" style="shape=partialRectangle;html=1;whiteSpace=wrap;connectable=0;strokeColor=inherit;overflow=hidden;fillColor=none;top=0;left=0;bottom=0;right=0;pointerEvents=1;fontSize=16;" vertex="1" parent="Et15URfuXUe40IgZoOrX-157">
          <mxGeometry x="93" width="47" height="41" as="geometry">
            <mxRectangle width="47" height="41" as="alternateBounds" />
          </mxGeometry>
        </mxCell>
        <mxCell id="Et15URfuXUe40IgZoOrX-161" style="shape=partialRectangle;html=1;whiteSpace=wrap;connectable=0;strokeColor=inherit;overflow=hidden;fillColor=none;top=0;left=0;bottom=0;right=0;pointerEvents=1;fontSize=16;" vertex="1" parent="Et15URfuXUe40IgZoOrX-157">
          <mxGeometry x="140" width="47" height="41" as="geometry">
            <mxRectangle width="47" height="41" as="alternateBounds" />
          </mxGeometry>
        </mxCell>
        <mxCell id="Et15URfuXUe40IgZoOrX-162" value="" style="shape=tableRow;horizontal=0;startSize=0;swimlaneHead=0;swimlaneBody=0;strokeColor=inherit;top=0;left=0;bottom=0;right=0;collapsible=0;dropTarget=0;fillColor=none;points=[[0,0.5],[1,0.5]];portConstraint=eastwest;fontSize=16;" vertex="1" parent="Et15URfuXUe40IgZoOrX-151">
          <mxGeometry y="81" width="187.29" height="40" as="geometry" />
        </mxCell>
        <mxCell id="Et15URfuXUe40IgZoOrX-163" value="" style="shape=partialRectangle;html=1;whiteSpace=wrap;connectable=0;strokeColor=inherit;overflow=hidden;fillColor=none;top=0;left=0;bottom=0;right=0;pointerEvents=1;fontSize=16;" vertex="1" parent="Et15URfuXUe40IgZoOrX-162">
          <mxGeometry width="47" height="40" as="geometry">
            <mxRectangle width="47" height="40" as="alternateBounds" />
          </mxGeometry>
        </mxCell>
        <mxCell id="Et15URfuXUe40IgZoOrX-164" value="" style="shape=partialRectangle;html=1;whiteSpace=wrap;connectable=0;strokeColor=inherit;overflow=hidden;fillColor=none;top=0;left=0;bottom=0;right=0;pointerEvents=1;fontSize=16;" vertex="1" parent="Et15URfuXUe40IgZoOrX-162">
          <mxGeometry x="47" width="46" height="40" as="geometry">
            <mxRectangle width="46" height="40" as="alternateBounds" />
          </mxGeometry>
        </mxCell>
        <mxCell id="Et15URfuXUe40IgZoOrX-165" value="" style="shape=partialRectangle;html=1;whiteSpace=wrap;connectable=0;strokeColor=inherit;overflow=hidden;fillColor=none;top=0;left=0;bottom=0;right=0;pointerEvents=1;fontSize=16;" vertex="1" parent="Et15URfuXUe40IgZoOrX-162">
          <mxGeometry x="93" width="47" height="40" as="geometry">
            <mxRectangle width="47" height="40" as="alternateBounds" />
          </mxGeometry>
        </mxCell>
        <mxCell id="Et15URfuXUe40IgZoOrX-166" style="shape=partialRectangle;html=1;whiteSpace=wrap;connectable=0;strokeColor=inherit;overflow=hidden;fillColor=none;top=0;left=0;bottom=0;right=0;pointerEvents=1;fontSize=16;" vertex="1" parent="Et15URfuXUe40IgZoOrX-162">
          <mxGeometry x="140" width="47" height="40" as="geometry">
            <mxRectangle width="47" height="40" as="alternateBounds" />
          </mxGeometry>
        </mxCell>
        <mxCell id="Et15URfuXUe40IgZoOrX-167" value="" style="shape=tableRow;horizontal=0;startSize=0;swimlaneHead=0;swimlaneBody=0;strokeColor=inherit;top=0;left=0;bottom=0;right=0;collapsible=0;dropTarget=0;fillColor=none;points=[[0,0.5],[1,0.5]];portConstraint=eastwest;fontSize=16;" vertex="1" parent="Et15URfuXUe40IgZoOrX-151">
          <mxGeometry y="121" width="187.29" height="40" as="geometry" />
        </mxCell>
        <mxCell id="Et15URfuXUe40IgZoOrX-168" value="" style="shape=partialRectangle;html=1;whiteSpace=wrap;connectable=0;strokeColor=inherit;overflow=hidden;fillColor=none;top=0;left=0;bottom=0;right=0;pointerEvents=1;fontSize=16;" vertex="1" parent="Et15URfuXUe40IgZoOrX-167">
          <mxGeometry width="47" height="40" as="geometry">
            <mxRectangle width="47" height="40" as="alternateBounds" />
          </mxGeometry>
        </mxCell>
        <mxCell id="Et15URfuXUe40IgZoOrX-169" value="" style="shape=partialRectangle;html=1;whiteSpace=wrap;connectable=0;strokeColor=inherit;overflow=hidden;fillColor=none;top=0;left=0;bottom=0;right=0;pointerEvents=1;fontSize=16;" vertex="1" parent="Et15URfuXUe40IgZoOrX-167">
          <mxGeometry x="47" width="46" height="40" as="geometry">
            <mxRectangle width="46" height="40" as="alternateBounds" />
          </mxGeometry>
        </mxCell>
        <mxCell id="Et15URfuXUe40IgZoOrX-170" value="" style="shape=partialRectangle;html=1;whiteSpace=wrap;connectable=0;strokeColor=inherit;overflow=hidden;fillColor=none;top=0;left=0;bottom=0;right=0;pointerEvents=1;fontSize=16;" vertex="1" parent="Et15URfuXUe40IgZoOrX-167">
          <mxGeometry x="93" width="47" height="40" as="geometry">
            <mxRectangle width="47" height="40" as="alternateBounds" />
          </mxGeometry>
        </mxCell>
        <mxCell id="Et15URfuXUe40IgZoOrX-171" style="shape=partialRectangle;html=1;whiteSpace=wrap;connectable=0;strokeColor=inherit;overflow=hidden;fillColor=none;top=0;left=0;bottom=0;right=0;pointerEvents=1;fontSize=16;" vertex="1" parent="Et15URfuXUe40IgZoOrX-167">
          <mxGeometry x="140" width="47" height="40" as="geometry">
            <mxRectangle width="47" height="40" as="alternateBounds" />
          </mxGeometry>
        </mxCell>
        <mxCell id="Et15URfuXUe40IgZoOrX-172" value="" style="shape=table;startSize=0;container=1;collapsible=0;childLayout=tableLayout;fontSize=16;" vertex="1" parent="1">
          <mxGeometry x="-359" y="260" width="187.29" height="161" as="geometry" />
        </mxCell>
        <mxCell id="Et15URfuXUe40IgZoOrX-173" value="" style="shape=tableRow;horizontal=0;startSize=0;swimlaneHead=0;swimlaneBody=0;strokeColor=inherit;top=0;left=0;bottom=0;right=0;collapsible=0;dropTarget=0;fillColor=none;points=[[0,0.5],[1,0.5]];portConstraint=eastwest;fontSize=16;" vertex="1" parent="Et15URfuXUe40IgZoOrX-172">
          <mxGeometry width="187.29" height="40" as="geometry" />
        </mxCell>
        <mxCell id="Et15URfuXUe40IgZoOrX-174" value="" style="shape=partialRectangle;html=1;whiteSpace=wrap;connectable=0;strokeColor=inherit;overflow=hidden;fillColor=none;top=0;left=0;bottom=0;right=0;pointerEvents=1;fontSize=16;" vertex="1" parent="Et15URfuXUe40IgZoOrX-173">
          <mxGeometry width="47" height="40" as="geometry">
            <mxRectangle width="47" height="40" as="alternateBounds" />
          </mxGeometry>
        </mxCell>
        <mxCell id="Et15URfuXUe40IgZoOrX-175" value="" style="shape=partialRectangle;html=1;whiteSpace=wrap;connectable=0;strokeColor=inherit;overflow=hidden;fillColor=none;top=0;left=0;bottom=0;right=0;pointerEvents=1;fontSize=16;" vertex="1" parent="Et15URfuXUe40IgZoOrX-173">
          <mxGeometry x="47" width="46" height="40" as="geometry">
            <mxRectangle width="46" height="40" as="alternateBounds" />
          </mxGeometry>
        </mxCell>
        <mxCell id="Et15URfuXUe40IgZoOrX-176" value="" style="shape=partialRectangle;html=1;whiteSpace=wrap;connectable=0;strokeColor=inherit;overflow=hidden;fillColor=none;top=0;left=0;bottom=0;right=0;pointerEvents=1;fontSize=16;" vertex="1" parent="Et15URfuXUe40IgZoOrX-173">
          <mxGeometry x="93" width="47" height="40" as="geometry">
            <mxRectangle width="47" height="40" as="alternateBounds" />
          </mxGeometry>
        </mxCell>
        <mxCell id="Et15URfuXUe40IgZoOrX-177" style="shape=partialRectangle;html=1;whiteSpace=wrap;connectable=0;strokeColor=inherit;overflow=hidden;fillColor=none;top=0;left=0;bottom=0;right=0;pointerEvents=1;fontSize=16;" vertex="1" parent="Et15URfuXUe40IgZoOrX-173">
          <mxGeometry x="140" width="47" height="40" as="geometry">
            <mxRectangle width="47" height="40" as="alternateBounds" />
          </mxGeometry>
        </mxCell>
        <mxCell id="Et15URfuXUe40IgZoOrX-178" value="" style="shape=tableRow;horizontal=0;startSize=0;swimlaneHead=0;swimlaneBody=0;strokeColor=inherit;top=0;left=0;bottom=0;right=0;collapsible=0;dropTarget=0;fillColor=none;points=[[0,0.5],[1,0.5]];portConstraint=eastwest;fontSize=16;" vertex="1" parent="Et15URfuXUe40IgZoOrX-172">
          <mxGeometry y="40" width="187.29" height="41" as="geometry" />
        </mxCell>
        <mxCell id="Et15URfuXUe40IgZoOrX-179" value="" style="shape=partialRectangle;html=1;whiteSpace=wrap;connectable=0;strokeColor=inherit;overflow=hidden;fillColor=none;top=0;left=0;bottom=0;right=0;pointerEvents=1;fontSize=16;" vertex="1" parent="Et15URfuXUe40IgZoOrX-178">
          <mxGeometry width="47" height="41" as="geometry">
            <mxRectangle width="47" height="41" as="alternateBounds" />
          </mxGeometry>
        </mxCell>
        <mxCell id="Et15URfuXUe40IgZoOrX-180" value="" style="shape=partialRectangle;html=1;whiteSpace=wrap;connectable=0;strokeColor=inherit;overflow=hidden;fillColor=none;top=0;left=0;bottom=0;right=0;pointerEvents=1;fontSize=16;" vertex="1" parent="Et15URfuXUe40IgZoOrX-178">
          <mxGeometry x="47" width="46" height="41" as="geometry">
            <mxRectangle width="46" height="41" as="alternateBounds" />
          </mxGeometry>
        </mxCell>
        <mxCell id="Et15URfuXUe40IgZoOrX-181" value="" style="shape=partialRectangle;html=1;whiteSpace=wrap;connectable=0;strokeColor=inherit;overflow=hidden;fillColor=none;top=0;left=0;bottom=0;right=0;pointerEvents=1;fontSize=16;" vertex="1" parent="Et15URfuXUe40IgZoOrX-178">
          <mxGeometry x="93" width="47" height="41" as="geometry">
            <mxRectangle width="47" height="41" as="alternateBounds" />
          </mxGeometry>
        </mxCell>
        <mxCell id="Et15URfuXUe40IgZoOrX-182" style="shape=partialRectangle;html=1;whiteSpace=wrap;connectable=0;strokeColor=inherit;overflow=hidden;fillColor=none;top=0;left=0;bottom=0;right=0;pointerEvents=1;fontSize=16;" vertex="1" parent="Et15URfuXUe40IgZoOrX-178">
          <mxGeometry x="140" width="47" height="41" as="geometry">
            <mxRectangle width="47" height="41" as="alternateBounds" />
          </mxGeometry>
        </mxCell>
        <mxCell id="Et15URfuXUe40IgZoOrX-183" value="" style="shape=tableRow;horizontal=0;startSize=0;swimlaneHead=0;swimlaneBody=0;strokeColor=inherit;top=0;left=0;bottom=0;right=0;collapsible=0;dropTarget=0;fillColor=none;points=[[0,0.5],[1,0.5]];portConstraint=eastwest;fontSize=16;" vertex="1" parent="Et15URfuXUe40IgZoOrX-172">
          <mxGeometry y="81" width="187.29" height="40" as="geometry" />
        </mxCell>
        <mxCell id="Et15URfuXUe40IgZoOrX-184" value="" style="shape=partialRectangle;html=1;whiteSpace=wrap;connectable=0;strokeColor=inherit;overflow=hidden;fillColor=none;top=0;left=0;bottom=0;right=0;pointerEvents=1;fontSize=16;" vertex="1" parent="Et15URfuXUe40IgZoOrX-183">
          <mxGeometry width="47" height="40" as="geometry">
            <mxRectangle width="47" height="40" as="alternateBounds" />
          </mxGeometry>
        </mxCell>
        <mxCell id="Et15URfuXUe40IgZoOrX-185" value="" style="shape=partialRectangle;html=1;whiteSpace=wrap;connectable=0;strokeColor=inherit;overflow=hidden;fillColor=none;top=0;left=0;bottom=0;right=0;pointerEvents=1;fontSize=16;" vertex="1" parent="Et15URfuXUe40IgZoOrX-183">
          <mxGeometry x="47" width="46" height="40" as="geometry">
            <mxRectangle width="46" height="40" as="alternateBounds" />
          </mxGeometry>
        </mxCell>
        <mxCell id="Et15URfuXUe40IgZoOrX-186" value="" style="shape=partialRectangle;html=1;whiteSpace=wrap;connectable=0;strokeColor=inherit;overflow=hidden;fillColor=none;top=0;left=0;bottom=0;right=0;pointerEvents=1;fontSize=16;" vertex="1" parent="Et15URfuXUe40IgZoOrX-183">
          <mxGeometry x="93" width="47" height="40" as="geometry">
            <mxRectangle width="47" height="40" as="alternateBounds" />
          </mxGeometry>
        </mxCell>
        <mxCell id="Et15URfuXUe40IgZoOrX-187" style="shape=partialRectangle;html=1;whiteSpace=wrap;connectable=0;strokeColor=inherit;overflow=hidden;fillColor=none;top=0;left=0;bottom=0;right=0;pointerEvents=1;fontSize=16;" vertex="1" parent="Et15URfuXUe40IgZoOrX-183">
          <mxGeometry x="140" width="47" height="40" as="geometry">
            <mxRectangle width="47" height="40" as="alternateBounds" />
          </mxGeometry>
        </mxCell>
        <mxCell id="Et15URfuXUe40IgZoOrX-188" value="" style="shape=tableRow;horizontal=0;startSize=0;swimlaneHead=0;swimlaneBody=0;strokeColor=inherit;top=0;left=0;bottom=0;right=0;collapsible=0;dropTarget=0;fillColor=none;points=[[0,0.5],[1,0.5]];portConstraint=eastwest;fontSize=16;" vertex="1" parent="Et15URfuXUe40IgZoOrX-172">
          <mxGeometry y="121" width="187.29" height="40" as="geometry" />
        </mxCell>
        <mxCell id="Et15URfuXUe40IgZoOrX-189" value="" style="shape=partialRectangle;html=1;whiteSpace=wrap;connectable=0;strokeColor=inherit;overflow=hidden;fillColor=none;top=0;left=0;bottom=0;right=0;pointerEvents=1;fontSize=16;" vertex="1" parent="Et15URfuXUe40IgZoOrX-188">
          <mxGeometry width="47" height="40" as="geometry">
            <mxRectangle width="47" height="40" as="alternateBounds" />
          </mxGeometry>
        </mxCell>
        <mxCell id="Et15URfuXUe40IgZoOrX-190" value="" style="shape=partialRectangle;html=1;whiteSpace=wrap;connectable=0;strokeColor=inherit;overflow=hidden;fillColor=none;top=0;left=0;bottom=0;right=0;pointerEvents=1;fontSize=16;" vertex="1" parent="Et15URfuXUe40IgZoOrX-188">
          <mxGeometry x="47" width="46" height="40" as="geometry">
            <mxRectangle width="46" height="40" as="alternateBounds" />
          </mxGeometry>
        </mxCell>
        <mxCell id="Et15URfuXUe40IgZoOrX-191" value="" style="shape=partialRectangle;html=1;whiteSpace=wrap;connectable=0;strokeColor=inherit;overflow=hidden;fillColor=none;top=0;left=0;bottom=0;right=0;pointerEvents=1;fontSize=16;" vertex="1" parent="Et15URfuXUe40IgZoOrX-188">
          <mxGeometry x="93" width="47" height="40" as="geometry">
            <mxRectangle width="47" height="40" as="alternateBounds" />
          </mxGeometry>
        </mxCell>
        <mxCell id="Et15URfuXUe40IgZoOrX-192" style="shape=partialRectangle;html=1;whiteSpace=wrap;connectable=0;strokeColor=inherit;overflow=hidden;fillColor=none;top=0;left=0;bottom=0;right=0;pointerEvents=1;fontSize=16;" vertex="1" parent="Et15URfuXUe40IgZoOrX-188">
          <mxGeometry x="140" width="47" height="40" as="geometry">
            <mxRectangle width="47" height="40" as="alternateBounds" />
          </mxGeometry>
        </mxCell>
        <mxCell id="Et15URfuXUe40IgZoOrX-193" value="" style="shape=table;startSize=0;container=1;collapsible=0;childLayout=tableLayout;fontSize=16;" vertex="1" parent="1">
          <mxGeometry x="-349" y="270" width="187.29" height="161" as="geometry" />
        </mxCell>
        <mxCell id="Et15URfuXUe40IgZoOrX-194" value="" style="shape=tableRow;horizontal=0;startSize=0;swimlaneHead=0;swimlaneBody=0;strokeColor=inherit;top=0;left=0;bottom=0;right=0;collapsible=0;dropTarget=0;fillColor=none;points=[[0,0.5],[1,0.5]];portConstraint=eastwest;fontSize=16;" vertex="1" parent="Et15URfuXUe40IgZoOrX-193">
          <mxGeometry width="187.29" height="40" as="geometry" />
        </mxCell>
        <mxCell id="Et15URfuXUe40IgZoOrX-195" value="" style="shape=partialRectangle;html=1;whiteSpace=wrap;connectable=0;strokeColor=#b85450;overflow=hidden;fillColor=#f8cecc;top=0;left=0;bottom=0;right=0;pointerEvents=1;fontSize=16;" vertex="1" parent="Et15URfuXUe40IgZoOrX-194">
          <mxGeometry width="47" height="40" as="geometry">
            <mxRectangle width="47" height="40" as="alternateBounds" />
          </mxGeometry>
        </mxCell>
        <mxCell id="Et15URfuXUe40IgZoOrX-196" value="" style="shape=partialRectangle;html=1;whiteSpace=wrap;connectable=0;strokeColor=#b85450;overflow=hidden;fillColor=#f8cecc;top=0;left=0;bottom=0;right=0;pointerEvents=1;fontSize=16;" vertex="1" parent="Et15URfuXUe40IgZoOrX-194">
          <mxGeometry x="47" width="46" height="40" as="geometry">
            <mxRectangle width="46" height="40" as="alternateBounds" />
          </mxGeometry>
        </mxCell>
        <mxCell id="Et15URfuXUe40IgZoOrX-197" value="" style="shape=partialRectangle;html=1;whiteSpace=wrap;connectable=0;strokeColor=inherit;overflow=hidden;fillColor=none;top=0;left=0;bottom=0;right=0;pointerEvents=1;fontSize=16;" vertex="1" parent="Et15URfuXUe40IgZoOrX-194">
          <mxGeometry x="93" width="47" height="40" as="geometry">
            <mxRectangle width="47" height="40" as="alternateBounds" />
          </mxGeometry>
        </mxCell>
        <mxCell id="Et15URfuXUe40IgZoOrX-198" style="shape=partialRectangle;html=1;whiteSpace=wrap;connectable=0;strokeColor=inherit;overflow=hidden;fillColor=none;top=0;left=0;bottom=0;right=0;pointerEvents=1;fontSize=16;" vertex="1" parent="Et15URfuXUe40IgZoOrX-194">
          <mxGeometry x="140" width="47" height="40" as="geometry">
            <mxRectangle width="47" height="40" as="alternateBounds" />
          </mxGeometry>
        </mxCell>
        <mxCell id="Et15URfuXUe40IgZoOrX-199" value="" style="shape=tableRow;horizontal=0;startSize=0;swimlaneHead=0;swimlaneBody=0;strokeColor=inherit;top=0;left=0;bottom=0;right=0;collapsible=0;dropTarget=0;fillColor=none;points=[[0,0.5],[1,0.5]];portConstraint=eastwest;fontSize=16;" vertex="1" parent="Et15URfuXUe40IgZoOrX-193">
          <mxGeometry y="40" width="187.29" height="41" as="geometry" />
        </mxCell>
        <mxCell id="Et15URfuXUe40IgZoOrX-200" value="" style="shape=partialRectangle;html=1;whiteSpace=wrap;connectable=0;strokeColor=#b85450;overflow=hidden;fillColor=#f8cecc;top=0;left=0;bottom=0;right=0;pointerEvents=1;fontSize=16;" vertex="1" parent="Et15URfuXUe40IgZoOrX-199">
          <mxGeometry width="47" height="41" as="geometry">
            <mxRectangle width="47" height="41" as="alternateBounds" />
          </mxGeometry>
        </mxCell>
        <mxCell id="Et15URfuXUe40IgZoOrX-201" value="" style="shape=partialRectangle;html=1;whiteSpace=wrap;connectable=0;strokeColor=#b85450;overflow=hidden;fillColor=#f8cecc;top=0;left=0;bottom=0;right=0;pointerEvents=1;fontSize=16;" vertex="1" parent="Et15URfuXUe40IgZoOrX-199">
          <mxGeometry x="47" width="46" height="41" as="geometry">
            <mxRectangle width="46" height="41" as="alternateBounds" />
          </mxGeometry>
        </mxCell>
        <mxCell id="Et15URfuXUe40IgZoOrX-202" value="" style="shape=partialRectangle;html=1;whiteSpace=wrap;connectable=0;strokeColor=inherit;overflow=hidden;fillColor=none;top=0;left=0;bottom=0;right=0;pointerEvents=1;fontSize=16;" vertex="1" parent="Et15URfuXUe40IgZoOrX-199">
          <mxGeometry x="93" width="47" height="41" as="geometry">
            <mxRectangle width="47" height="41" as="alternateBounds" />
          </mxGeometry>
        </mxCell>
        <mxCell id="Et15URfuXUe40IgZoOrX-203" style="shape=partialRectangle;html=1;whiteSpace=wrap;connectable=0;strokeColor=inherit;overflow=hidden;fillColor=none;top=0;left=0;bottom=0;right=0;pointerEvents=1;fontSize=16;" vertex="1" parent="Et15URfuXUe40IgZoOrX-199">
          <mxGeometry x="140" width="47" height="41" as="geometry">
            <mxRectangle width="47" height="41" as="alternateBounds" />
          </mxGeometry>
        </mxCell>
        <mxCell id="Et15URfuXUe40IgZoOrX-204" value="" style="shape=tableRow;horizontal=0;startSize=0;swimlaneHead=0;swimlaneBody=0;strokeColor=inherit;top=0;left=0;bottom=0;right=0;collapsible=0;dropTarget=0;fillColor=none;points=[[0,0.5],[1,0.5]];portConstraint=eastwest;fontSize=16;" vertex="1" parent="Et15URfuXUe40IgZoOrX-193">
          <mxGeometry y="81" width="187.29" height="40" as="geometry" />
        </mxCell>
        <mxCell id="Et15URfuXUe40IgZoOrX-205" value="" style="shape=partialRectangle;html=1;whiteSpace=wrap;connectable=0;strokeColor=inherit;overflow=hidden;fillColor=none;top=0;left=0;bottom=0;right=0;pointerEvents=1;fontSize=16;" vertex="1" parent="Et15URfuXUe40IgZoOrX-204">
          <mxGeometry width="47" height="40" as="geometry">
            <mxRectangle width="47" height="40" as="alternateBounds" />
          </mxGeometry>
        </mxCell>
        <mxCell id="Et15URfuXUe40IgZoOrX-206" value="" style="shape=partialRectangle;html=1;whiteSpace=wrap;connectable=0;strokeColor=inherit;overflow=hidden;fillColor=none;top=0;left=0;bottom=0;right=0;pointerEvents=1;fontSize=16;" vertex="1" parent="Et15URfuXUe40IgZoOrX-204">
          <mxGeometry x="47" width="46" height="40" as="geometry">
            <mxRectangle width="46" height="40" as="alternateBounds" />
          </mxGeometry>
        </mxCell>
        <mxCell id="Et15URfuXUe40IgZoOrX-207" value="" style="shape=partialRectangle;html=1;whiteSpace=wrap;connectable=0;strokeColor=inherit;overflow=hidden;fillColor=none;top=0;left=0;bottom=0;right=0;pointerEvents=1;fontSize=16;" vertex="1" parent="Et15URfuXUe40IgZoOrX-204">
          <mxGeometry x="93" width="47" height="40" as="geometry">
            <mxRectangle width="47" height="40" as="alternateBounds" />
          </mxGeometry>
        </mxCell>
        <mxCell id="Et15URfuXUe40IgZoOrX-208" style="shape=partialRectangle;html=1;whiteSpace=wrap;connectable=0;strokeColor=inherit;overflow=hidden;fillColor=none;top=0;left=0;bottom=0;right=0;pointerEvents=1;fontSize=16;" vertex="1" parent="Et15URfuXUe40IgZoOrX-204">
          <mxGeometry x="140" width="47" height="40" as="geometry">
            <mxRectangle width="47" height="40" as="alternateBounds" />
          </mxGeometry>
        </mxCell>
        <mxCell id="Et15URfuXUe40IgZoOrX-209" value="" style="shape=tableRow;horizontal=0;startSize=0;swimlaneHead=0;swimlaneBody=0;strokeColor=inherit;top=0;left=0;bottom=0;right=0;collapsible=0;dropTarget=0;fillColor=none;points=[[0,0.5],[1,0.5]];portConstraint=eastwest;fontSize=16;" vertex="1" parent="Et15URfuXUe40IgZoOrX-193">
          <mxGeometry y="121" width="187.29" height="40" as="geometry" />
        </mxCell>
        <mxCell id="Et15URfuXUe40IgZoOrX-210" value="" style="shape=partialRectangle;html=1;whiteSpace=wrap;connectable=0;strokeColor=inherit;overflow=hidden;fillColor=none;top=0;left=0;bottom=0;right=0;pointerEvents=1;fontSize=16;" vertex="1" parent="Et15URfuXUe40IgZoOrX-209">
          <mxGeometry width="47" height="40" as="geometry">
            <mxRectangle width="47" height="40" as="alternateBounds" />
          </mxGeometry>
        </mxCell>
        <mxCell id="Et15URfuXUe40IgZoOrX-211" value="" style="shape=partialRectangle;html=1;whiteSpace=wrap;connectable=0;strokeColor=inherit;overflow=hidden;fillColor=none;top=0;left=0;bottom=0;right=0;pointerEvents=1;fontSize=16;" vertex="1" parent="Et15URfuXUe40IgZoOrX-209">
          <mxGeometry x="47" width="46" height="40" as="geometry">
            <mxRectangle width="46" height="40" as="alternateBounds" />
          </mxGeometry>
        </mxCell>
        <mxCell id="Et15URfuXUe40IgZoOrX-212" value="" style="shape=partialRectangle;html=1;whiteSpace=wrap;connectable=0;strokeColor=inherit;overflow=hidden;fillColor=none;top=0;left=0;bottom=0;right=0;pointerEvents=1;fontSize=16;" vertex="1" parent="Et15URfuXUe40IgZoOrX-209">
          <mxGeometry x="93" width="47" height="40" as="geometry">
            <mxRectangle width="47" height="40" as="alternateBounds" />
          </mxGeometry>
        </mxCell>
        <mxCell id="Et15URfuXUe40IgZoOrX-213" style="shape=partialRectangle;html=1;whiteSpace=wrap;connectable=0;strokeColor=inherit;overflow=hidden;fillColor=none;top=0;left=0;bottom=0;right=0;pointerEvents=1;fontSize=16;" vertex="1" parent="Et15URfuXUe40IgZoOrX-209">
          <mxGeometry x="140" width="47" height="40" as="geometry">
            <mxRectangle width="47" height="40" as="alternateBounds" />
          </mxGeometry>
        </mxCell>
      </root>
    </mxGraphModel>
  </diagram>
</mxfile>
